<svg xmlns="http://www.w3.org/2000/svg" enable-background="new 0 0 24 24" viewBox="0 0 24 24"><path d="m12.179 23.994c-2.911 0-5.355-1.238-6.876-3.541-1.363-2.061-1.708-4.659-.803-6.04.453-.693 1.161-.995 2-.848 1.402.243 3.614 2.452 4.227 4.222.358 1.035.078 1.648-.222 1.981-.515.574-1.25.765-2.014.526-1.256-.392-2.386-1.849-2.573-3.317-.035-.274.159-.524.433-.559.273-.033.524.159.559.433.151 1.185 1.093 2.243 1.878 2.488.396.124.715.045.973-.24.215-.24.13-.668.02-.985-.517-1.493-2.5-3.398-3.453-3.563-.436-.075-.762.058-.992.41-.59.901-.451 3.047.8 4.942.955 1.444 3.24 3.745 7.841 2.928 6.59-1.172 6.119-7.274 5.942-9.571l-.013-.173c-.118-1.583-1.757-2.41-3.112-2.826-2.604-.8-5.333-.47-5.635-.088-.159.893-.002 1.598.502 2.104 1.311 1.314 4.735 1.012 5.945.787.27-.05.53.125.583.395s-.122.531-.391.586c-2.249.459-3.674 1.339-4.235 2.615-.819 1.862.447 4.008.459 4.03.142.237.065.544-.171.686-.237.143-.544.065-.686-.171-.063-.105-1.543-2.616-.518-4.947.355-.807.958-1.481 1.805-2.018-1.288-.086-2.651-.405-3.5-1.255-.745-.746-1-1.772-.757-3.05.238-1.255 3.064-1.193 3.921-1.145 2.998.17 6.573 1.378 6.785 4.224l.013.17c.177 2.301.718 9.302-6.764 10.633-.674.118-1.334.177-1.971.177z"/><path d="m11.592 18.02c-1.198 0-2.613-1.356-3.667-2.502-1.22-1.326-1.855-2.726-1.743-3.84.061-.604.338-1.099.801-1.434 1.163-.84 3.012-.136 4.397 1.675.763.997 3.084 4.029 1.181 5.725-.296.263-.623.376-.969.376zm.637-.75h.01zm-4.121-6.374c-.206 0-.39.051-.539.159-.231.167-.359.404-.392.724-.083.818.472 1.963 1.484 3.062 2.314 2.517 3.061 2.212 3.235 2.056.803-.715.362-2.185-1.31-4.37-.771-1.008-1.76-1.631-2.478-1.631z"/><path d="m10.761 12.156c-.143 0-.288-.056-.392-.161l-.01-.01c-1.873-2.616-4.04-8.131-3.16-10.626.238-.675.689-1.123 1.306-1.296.475-.134.968-.051 1.459.247 1.853 1.122 3.48 5.333 4.209 8.772.057.27-.115.536-.386.593-.27.056-.536-.115-.593-.386-.811-3.829-2.423-7.321-3.749-8.124-.249-.15-.47-.197-.671-.139-.189.053-.461.18-.633.666-.683 1.937 1.096 7.01 2.978 9.65.195.195.173.485-.022.68-.09.091-.212.134-.336.134z"/><path d="m17.647 10.529c-.089 0-.18-.024-.262-.074-.235-.145-.308-.453-.163-.688 1.752-2.84 3.223-6.69 2.65-8.215-.104-.278-.27-.444-.521-.521-1.624-.504-4.143 6.125-4.965 8.305-.097.258-.385.389-.644.292-.258-.097-.389-.386-.292-.644 1.768-4.691 3.848-9.64 6.196-8.908.547.169.949.559 1.161 1.125.797 2.125-1.199 6.601-2.735 9.092-.093.151-.257.236-.425.236z"/></svg>